<?xml version="1.0" encoding="UTF-8"?>
<svg width="249px" height="97px" viewBox="0 0 249 97" version="1.1" xmlns="http://www.w3.org/2000/svg" xmlns:xlink="http://www.w3.org/1999/xlink">
    <!-- Generator: Sketch 49 (51002) - http://www.bohemiancoding.com/sketch -->
    <title>logo</title>
    <desc>Created with Sketch.</desc>
    <defs>
        <linearGradient x1="13.1354036%" y1="14.5094111%" x2="85.6156026%" y2="82.0544259%" id="linearGradient-1">
            <stop stop-color="#FFB2C2" offset="0%"></stop>
            <stop stop-color="#F85E8A" offset="100%"></stop>
        </linearGradient>
    </defs>
    <g id="Page-1" stroke="none" stroke-width="1" fill="none" fill-rule="evenodd">
        <g id="logo" transform="translate(-1.000000, 0.000000)" fill-rule="nonzero">
            <g id="Group" transform="translate(0.069969, 0.259233)">
                <g>
                    <rect id="Rectangle-path" fill-opacity="0" fill="#F85E8A" x="1" y="0" width="60" height="49.4789887"></rect>
                    <g id="Shape">
                        <g>
                            <path d="M90.61,18.92 C84.33,13 80.36,14.65 78.49,21.33 C76.84,27.2 70.91,30.86 61.38,27.61 C51.85,24.36 53,13.85 58.13,9 C62.68,4.65 56.5,-4.43 33.87,7.91 C15.11,18.14 0.74,52.07 27.59,81.31 C54.44,110.55 83.13,93.07 95.16,67.89 C108.28,40.42 96.89,24.79 90.61,18.92 Z M66.36,56.63 C62.46,67.89 67.22,74.17 62.89,75.68 C58.56,77.19 49.89,68.75 48.82,52.94 C47.75,37.13 54.88,33.94 60.29,34.32 C74.59,35.4 69,49.1 66.36,56.63 Z" fill="url(#linearGradient-1)"></path>
                            <path d="M97.13,10.85 C86.5,-4.7 68.27,-2.73 74.34,11.63 C77.47,19.02 75.34,27.4 64.62,28.48 C72.26,30 77,26.5 78.49,21.33 C80.36,14.65 84.33,13.04 90.61,18.92 C96.89,24.8 108.28,40.42 95.16,67.92 C93.7393374,70.8979277 92.0876201,73.7600127 90.22,76.48 C92.8278431,74.2273566 95.1246304,71.6380063 97.05,68.78 C111.64,47.53 105.43,23 97.13,10.85 Z" fill="#FFBD88" style="mix-blend-mode: multiply;"></path>
                            <path d="M90.61,18.92 C84.33,13 80.36,14.65 78.49,21.33 C77,26.5 72.26,30 64.62,28.48 C56.37,31 46.41,33.81 46.48,52.24 C46.56,76 71.28,92.52 90.22,76.45 C92.0876201,73.7300127 93.7393374,70.8679277 95.16,67.89 C108.28,40.42 96.89,24.79 90.61,18.92 Z M66.36,56.63 C62.46,67.89 67.22,74.17 62.89,75.68 C58.56,77.19 49.89,68.75 48.82,52.94 C47.75,37.13 54.88,33.94 60.29,34.32 C74.59,35.4 69,49.1 66.36,56.63 Z" fill="#FFBD88" style="mix-blend-mode: multiply;"></path>
                            <path d="M14.84,32.61 C9.3,35.12 5,38.74 3,43.63 C-4.43,62.15 9.7,75.14 26.6,80.24 C12.42,64.1 10.53,46.65 14.84,32.61 Z" fill="#AB8EEB" style="mix-blend-mode: multiply;"></path>
                            <path d="M63.67,75.3 C63.4287728,75.4620391 63.1662834,75.5899185 62.89,75.68 C58.56,77.2 49.89,68.75 48.82,52.94 C47.75,37.13 54.88,33.94 60.29,34.32 C65.7,34.7 68.13,36.84 69.13,39.73 C65.87,28.32 33.45,24.17 14.84,32.61 C10.53,46.61 12.42,64.1 26.63,80.24 C40.64,84.46 56.54,83.26 63.67,75.3 Z" fill="#AB8EEB" style="mix-blend-mode: multiply;"></path>
                            <path d="M99.1,31.83 C102.1,40.19 102.71,52.08 95.16,67.89 C90.61,77.42 83.66,85.89 75.34,91.06 C94.09,88.58 108.41,74.44 112.66,59.47 C119.31,36 111.35,24.53 99.1,31.83 Z" fill="#F757AF" style="mix-blend-mode: multiply;"></path>
                            <path d="M95.16,67.89 C102.71,52.08 102.16,40.19 99.1,31.83 L98.69,32.08 C81.84,42.61 75.05,39.5 69.69,36.25 C33.77,14.6 17.85,86.57 65,91.22 C68.448061,91.5636914 71.9241968,91.5100059 75.36,91.06 C83.66,85.85 90.61,77.42 95.16,67.89 Z M66.36,56.63 C62.46,67.89 67.22,74.17 62.89,75.68 C58.56,77.19 49.89,68.75 48.82,52.94 C47.75,37.13 54.88,33.94 60.29,34.32 C74.59,35.4 69,49.1 66.36,56.63 Z" fill="#F757AF" style="mix-blend-mode: multiply;"></path>
                            <path d="M24.72,81.25 C10.79,77.34 5.4,91.23 13.27,92.4 C21.14,93.57 29.59,82.61 24.72,81.25 Z" fill="#F757AF"></path>
                            <path d="M29.1,86.75 C26.4,85 21.76,93.16 27,95.19 C33,97.5 31.81,88.47 29.1,86.75 Z" fill="#FFBD88" style="mix-blend-mode: multiply;"></path>
                            <path d="M105.82,26.94 C106.87,29.94 121.03,22.32 117.52,19.59 C114.01,16.86 105,24.6 105.82,26.94 Z" fill="#AB8EEB" style="mix-blend-mode: multiply;"></path>
                        </g>
                    </g>
                </g>
                <g transform="translate(131.000000, 11.000000)" fill="#F85E8A" id="Shape">
                    <g>
                        <path d="M0,23.1126316 L0,76.1526316 L7,76.1526316 L7,23.1126316 L0,23.1126316 Z M38.9680597,60.8194737 L41.5079104,76.1526316 L48.8610448,76.1526316 L36.2328358,0 L25.6116418,0 L12.9834328,76.1526316 L19.768209,76.1526316 L22.3080597,60.8194737 L38.9680597,60.8194737 Z M30.4959701,9.56526316 L37.9379104,53.5326316 L23.249403,53.5326316 L30.4959701,9.56526316 Z M54.5979104,0 L54.5979104,76.1526316 L61.9332836,76.1526316 L61.9332836,46.1226316 L68.4338806,46.1226316 C78.8774627,46.1226316 83.7795522,39.8210526 83.7795522,27.7310526 L83.7795522,18.5968421 C83.7795522,7.06105263 79.3570149,0 69.0022388,0 L54.5979104,0 Z M61.9332836,38.5073684 L61.9332836,7.71789474 L69.0022388,7.71789474 C74.3661194,7.71789474 76.5329851,11.2073684 76.5329851,18.1657895 L76.5329851,28.2852632 C76.5329851,35.5721053 73.9043284,38.5073684 68.4338806,38.5073684 L61.9332836,38.5073684 Z M89.5164179,0 L89.5164179,76.1526316 L96.8695522,76.1526316 L96.8695522,46.1226316 L103.352388,46.1226316 C113.813731,46.1226316 118.69806,39.8210526 118.69806,27.7310526 L118.69806,18.5968421 C118.69806,7.06105263 114.275522,0 103.920746,0 L89.5164179,0 Z M96.8695522,38.5073684 L96.8695522,7.71789474 L103.920746,7.71789474 C109.284627,7.71789474 111.451493,11.2073684 111.451493,18.1657895 L111.451493,28.2852632 C111.451493,35.5721053 108.822836,38.5073684 103.352388,38.5073684 L96.8695522,38.5073684 Z"></path>
                    </g>
                </g>
            </g>
        </g>
    </g>
</svg>